<mxfile host="app.diagrams.net" modified="2021-11-15T01:06:33.007Z" agent="5.0 (Windows)" etag="uSmqTp0zCMhWHay560Z_" version="15.6.8" type="github">
  <diagram id="1Op5jghNUw1cPAb3R31E" name="Page-1">
    <mxGraphModel dx="1091" dy="752" grid="1" gridSize="10" guides="1" tooltips="1" connect="1" arrows="1" fold="1" page="1" pageScale="1" pageWidth="1920" pageHeight="1200" math="0" shadow="0">
      <root>
        <mxCell id="0" />
        <mxCell id="1" parent="0" />
        <mxCell id="rQATWQKpPZrb8eQxDgEx-3" value="" style="edgeStyle=orthogonalEdgeStyle;rounded=0;orthogonalLoop=1;jettySize=auto;html=1;" edge="1" parent="1" source="rQATWQKpPZrb8eQxDgEx-1" target="rQATWQKpPZrb8eQxDgEx-2">
          <mxGeometry relative="1" as="geometry" />
        </mxCell>
        <mxCell id="rQATWQKpPZrb8eQxDgEx-1" value="Starter" style="ellipse;whiteSpace=wrap;html=1;" vertex="1" parent="1">
          <mxGeometry x="250" y="20" width="120" height="80" as="geometry" />
        </mxCell>
        <mxCell id="rQATWQKpPZrb8eQxDgEx-5" value="" style="edgeStyle=orthogonalEdgeStyle;rounded=0;orthogonalLoop=1;jettySize=auto;html=1;" edge="1" parent="1" source="rQATWQKpPZrb8eQxDgEx-2" target="rQATWQKpPZrb8eQxDgEx-4">
          <mxGeometry relative="1" as="geometry" />
        </mxCell>
        <mxCell id="rQATWQKpPZrb8eQxDgEx-2" value="nacos-config-spring-boot-autoconfigure.jar" style="rounded=0;whiteSpace=wrap;html=1;" vertex="1" parent="1">
          <mxGeometry x="250" y="160" width="120" height="60" as="geometry" />
        </mxCell>
        <mxCell id="rQATWQKpPZrb8eQxDgEx-7" value="" style="edgeStyle=orthogonalEdgeStyle;rounded=0;orthogonalLoop=1;jettySize=auto;html=1;" edge="1" parent="1" source="rQATWQKpPZrb8eQxDgEx-4" target="rQATWQKpPZrb8eQxDgEx-6">
          <mxGeometry relative="1" as="geometry" />
        </mxCell>
        <mxCell id="rQATWQKpPZrb8eQxDgEx-9" value="" style="edgeStyle=orthogonalEdgeStyle;rounded=0;orthogonalLoop=1;jettySize=auto;html=1;" edge="1" parent="1" source="rQATWQKpPZrb8eQxDgEx-4" target="rQATWQKpPZrb8eQxDgEx-8">
          <mxGeometry relative="1" as="geometry" />
        </mxCell>
        <mxCell id="rQATWQKpPZrb8eQxDgEx-11" value="" style="edgeStyle=orthogonalEdgeStyle;rounded=0;orthogonalLoop=1;jettySize=auto;html=1;" edge="1" parent="1" source="rQATWQKpPZrb8eQxDgEx-4" target="rQATWQKpPZrb8eQxDgEx-10">
          <mxGeometry relative="1" as="geometry" />
        </mxCell>
        <mxCell id="rQATWQKpPZrb8eQxDgEx-4" value="&lt;div&gt;spring.factory&lt;/div&gt;" style="whiteSpace=wrap;html=1;rounded=0;" vertex="1" parent="1">
          <mxGeometry x="250" y="300" width="120" height="60" as="geometry" />
        </mxCell>
        <mxCell id="rQATWQKpPZrb8eQxDgEx-13" value="" style="edgeStyle=orthogonalEdgeStyle;rounded=0;orthogonalLoop=1;jettySize=auto;html=1;" edge="1" parent="1" source="rQATWQKpPZrb8eQxDgEx-6" target="rQATWQKpPZrb8eQxDgEx-12">
          <mxGeometry relative="1" as="geometry" />
        </mxCell>
        <mxCell id="rQATWQKpPZrb8eQxDgEx-6" value="EnableAutoConfiguration" style="whiteSpace=wrap;html=1;rounded=0;" vertex="1" parent="1">
          <mxGeometry x="460" y="440" width="180" height="40" as="geometry" />
        </mxCell>
        <mxCell id="rQATWQKpPZrb8eQxDgEx-8" value="EnvironmentPostProcessor" style="whiteSpace=wrap;html=1;rounded=0;" vertex="1" parent="1">
          <mxGeometry x="225" y="440" width="170" height="40" as="geometry" />
        </mxCell>
        <mxCell id="rQATWQKpPZrb8eQxDgEx-10" value="ApplicationListener" style="whiteSpace=wrap;html=1;rounded=0;" vertex="1" parent="1">
          <mxGeometry x="40" y="440" width="120" height="40" as="geometry" />
        </mxCell>
        <mxCell id="rQATWQKpPZrb8eQxDgEx-12" value="配置NacosConfigProperties" style="whiteSpace=wrap;html=1;rounded=0;" vertex="1" parent="1">
          <mxGeometry x="460" y="565" width="180" height="45" as="geometry" />
        </mxCell>
      </root>
    </mxGraphModel>
  </diagram>
</mxfile>
